<svg width="40" height="40" viewBox="0 0 40 40" fill="none" xmlns="http://www.w3.org/2000/svg">
<g clip-path="url(#clip0_1_37305)">
<rect width="40" height="40" rx="20" fill="white"/>
<path d="M20.2524 14.5459C21.8772 14.5459 22.9733 15.2478 23.5982 15.8343L26.0402 13.4499C24.5404 12.0559 22.5887 11.2002 20.2524 11.2002C16.8682 11.2002 13.9455 13.1423 12.5226 15.9688L15.3203 18.1417C16.0222 16.0554 17.9642 14.5459 20.2524 14.5459Z" fill="#EA4335"/>
<path d="M28.5591 20.0453C28.5591 19.3338 28.5014 18.8147 28.3764 18.2763H20.2524V21.4874H25.0211C24.9249 22.2854 24.4058 23.4872 23.2521 24.2948L25.9825 26.4099C27.6169 24.9005 28.5591 22.6796 28.5591 20.0453Z" fill="#4285F4"/>
<path d="M15.3299 21.5643C15.1473 21.0259 15.0415 20.4491 15.0415 19.853C15.0415 19.2569 15.1473 18.6801 15.3203 18.1417L12.5226 15.9688C11.9361 17.1418 11.5996 18.4589 11.5996 19.853C11.5996 21.247 11.9361 22.5642 12.5226 23.7371L15.3299 21.5643Z" fill="#FBBC05"/>
<path d="M20.2524 28.5058C22.5886 28.5058 24.55 27.7367 25.9825 26.4099L23.2521 24.2948C22.5214 24.8043 21.5407 25.16 20.2524 25.16C17.9642 25.16 16.0222 23.6506 15.3299 21.5643L12.5322 23.7371C13.9551 26.5637 16.8682 28.5058 20.2524 28.5058Z" fill="#34A853"/>
</g>
<defs>
<clipPath id="clip0_1_37305">
<rect width="40" height="40" rx="20" fill="white"/>
</clipPath>
</defs>
</svg>
