<svg width="146" height="40" viewBox="0 0 146 40" fill="none" xmlns="http://www.w3.org/2000/svg">
<path d="M22 9H0V31H22V9Z" fill="#005555"/>
<path d="M35.0001 31C41.0752 31 46 26.0751 46 20C46 13.9249 41.0752 9 35.0001 9C28.9249 9 24 13.9249 24 20C24 26.0751 28.9249 31 35.0001 31Z" fill="#005555"/>
<path d="M59.0001 31C65.0752 31 70 26.0751 70 20C70 13.9249 65.0752 9 59.0001 9C52.9249 9 48 13.9249 48 20C48 26.0751 52.9249 31 59.0001 31Z" fill="#005555"/>
<path d="M74.2642 12.4545H78.0568L82.0625 22.2273H82.233L86.2386 12.4545H90.0312V27H87.0483V17.5327H86.9276L83.1634 26.929H81.1321L77.3679 17.4972H77.2472V27H74.2642V12.4545ZM97.4798 27.2131C96.3576 27.2131 95.3917 26.9858 94.582 26.5312C93.7771 26.072 93.1568 25.4233 92.7212 24.5852C92.2856 23.7424 92.0678 22.7457 92.0678 21.5952C92.0678 20.473 92.2856 19.4882 92.7212 18.6406C93.1568 17.7931 93.77 17.1326 94.5607 16.6591C95.3562 16.1856 96.2889 15.9489 97.359 15.9489C98.0787 15.9489 98.7487 16.0649 99.369 16.2969C99.994 16.5241 100.538 16.8674 101.002 17.3267C101.471 17.786 101.836 18.3636 102.096 19.0597C102.357 19.7509 102.487 20.5606 102.487 21.4886V22.3196H93.2752V20.4446H99.6388C99.6388 20.009 99.5442 19.6231 99.3548 19.2869C99.1654 18.9508 98.9026 18.688 98.5664 18.4986C98.235 18.3045 97.8491 18.2074 97.4087 18.2074C96.9495 18.2074 96.5423 18.3139 96.1871 18.527C95.8368 18.7353 95.5621 19.017 95.3633 19.3722C95.1644 19.7225 95.0626 20.1132 95.0579 20.544V22.3267C95.0579 22.8665 95.1573 23.3329 95.3562 23.7259C95.5598 24.1188 95.8462 24.4219 96.2156 24.6349C96.5849 24.848 97.0228 24.9545 97.5295 24.9545C97.8656 24.9545 98.1734 24.9072 98.4528 24.8125C98.7321 24.7178 98.9712 24.5758 99.1701 24.3864C99.369 24.197 99.5205 23.965 99.6246 23.6903L102.423 23.875C102.281 24.5473 101.99 25.1345 101.549 25.6364C101.114 26.1335 100.55 26.5218 99.859 26.8011C99.1725 27.0758 98.3794 27.2131 97.4798 27.2131ZM108.481 27.1776C107.653 27.1776 106.902 26.9645 106.23 26.5384C105.562 26.1075 105.032 25.4754 104.639 24.642C104.251 23.804 104.056 22.7765 104.056 21.5597C104.056 20.3097 104.258 19.2704 104.66 18.4418C105.063 17.6084 105.598 16.9858 106.265 16.5739C106.938 16.1572 107.674 15.9489 108.474 15.9489C109.085 15.9489 109.594 16.053 110.001 16.2614C110.413 16.465 110.744 16.7206 110.995 17.0284C111.251 17.3314 111.445 17.6297 111.578 17.9233H111.67V12.4545H114.689V27H111.706V25.2528H111.578C111.436 25.5559 111.234 25.8565 110.974 26.1548C110.718 26.4484 110.385 26.6922 109.973 26.8864C109.565 27.0805 109.068 27.1776 108.481 27.1776ZM109.44 24.7699C109.928 24.7699 110.34 24.6373 110.676 24.3722C111.017 24.1023 111.277 23.7259 111.457 23.2429C111.642 22.7599 111.734 22.1941 111.734 21.5455C111.734 20.8968 111.644 20.3333 111.464 19.8551C111.284 19.3769 111.024 19.0076 110.683 18.7472C110.342 18.4867 109.928 18.3565 109.44 18.3565C108.943 18.3565 108.524 18.4915 108.183 18.7614C107.842 19.0312 107.584 19.4053 107.409 19.8835C107.234 20.3617 107.146 20.9157 107.146 21.5455C107.146 22.1799 107.234 22.741 107.409 23.2287C107.589 23.7116 107.847 24.0904 108.183 24.3651C108.524 24.6349 108.943 24.7699 109.44 24.7699ZM117.176 27V16.0909H120.202V27H117.176ZM118.696 14.6847C118.246 14.6847 117.86 14.5355 117.538 14.2372C117.221 13.9342 117.062 13.572 117.062 13.1506C117.062 12.7339 117.221 12.3764 117.538 12.0781C117.86 11.7751 118.246 11.6236 118.696 11.6236C119.146 11.6236 119.529 11.7751 119.847 12.0781C120.169 12.3764 120.33 12.7339 120.33 13.1506C120.33 13.572 120.169 13.9342 119.847 14.2372C119.529 14.5355 119.146 14.6847 118.696 14.6847ZM125.736 27.206C125.04 27.206 124.42 27.0852 123.875 26.8438C123.331 26.5975 122.9 26.2353 122.583 25.7571C122.27 25.2741 122.114 24.6728 122.114 23.9531C122.114 23.3471 122.225 22.8381 122.448 22.4261C122.67 22.0142 122.973 21.6828 123.357 21.4318C123.74 21.1809 124.176 20.9915 124.664 20.8636C125.156 20.7358 125.672 20.6458 126.212 20.5938C126.846 20.5275 127.358 20.4659 127.746 20.4091C128.134 20.3475 128.416 20.2576 128.591 20.1392C128.766 20.0208 128.854 19.8456 128.854 19.6136V19.571C128.854 19.1212 128.712 18.7732 128.428 18.527C128.149 18.2808 127.751 18.1577 127.235 18.1577C126.69 18.1577 126.257 18.2784 125.935 18.5199C125.613 18.7566 125.4 19.0549 125.296 19.4148L122.498 19.1875C122.64 18.5246 122.919 17.9517 123.336 17.4688C123.752 16.9811 124.29 16.607 124.948 16.3466C125.611 16.0814 126.378 15.9489 127.249 15.9489C127.855 15.9489 128.435 16.0199 128.989 16.1619C129.548 16.304 130.042 16.5241 130.473 16.8224C130.909 17.1207 131.252 17.5043 131.503 17.973C131.754 18.437 131.88 18.9934 131.88 19.642V27H129.01V25.4872H128.925C128.75 25.8281 128.516 26.1288 128.222 26.3892C127.928 26.6449 127.576 26.8461 127.164 26.9929C126.752 27.1349 126.276 27.206 125.736 27.206ZM126.603 25.1179C127.048 25.1179 127.441 25.0303 127.782 24.8551C128.123 24.6752 128.39 24.4337 128.584 24.1307C128.778 23.8277 128.875 23.4844 128.875 23.1009V21.9432C128.781 22.0047 128.65 22.0616 128.485 22.1136C128.324 22.161 128.141 22.206 127.938 22.2486C127.734 22.2865 127.531 22.322 127.327 22.3551C127.123 22.3835 126.939 22.4096 126.773 22.4332C126.418 22.4853 126.108 22.5682 125.843 22.6818C125.578 22.7955 125.372 22.9493 125.225 23.1435C125.078 23.3329 125.005 23.5696 125.005 23.8537C125.005 24.2656 125.154 24.5805 125.452 24.7983C125.755 25.0114 126.139 25.1179 126.603 25.1179ZM137.252 20.6932V27H134.227V16.0909H137.11V18.0156H137.238C137.48 17.3812 137.885 16.8793 138.453 16.5099C139.021 16.1359 139.71 15.9489 140.52 15.9489C141.277 15.9489 141.938 16.1146 142.501 16.446C143.065 16.7775 143.502 17.2509 143.815 17.8665C144.127 18.4773 144.284 19.2064 144.284 20.054V27H141.258V20.5938C141.263 19.9261 141.092 19.4053 140.747 19.0312C140.401 18.6525 139.925 18.4631 139.319 18.4631C138.912 18.4631 138.552 18.5507 138.24 18.7259C137.932 18.901 137.69 19.1567 137.515 19.4929C137.345 19.8243 137.257 20.2244 137.252 20.6932Z" fill="#005555"/>
</svg>
